<svg xmlns:rdf="http://www.w3.org/1999/02/22-rdf-syntax-ns#" xmlns="http://www.w3.org/2000/svg" height="100" width="100" version="1.1" xmlns:cc="http://creativecommons.org/ns#" xmlns:dc="http://purl.org/dc/elements/1.1/">
 <path d="m100.6 57.429c0 3.313-2.687 6-6 6h-73c-3.313 0-6-2.687-6-6v-52c0-3.313 2.687-6 6-6h73c3.313 0 6 2.687 6 6v52z" fill-rule="evenodd" clip-rule="evenodd" fill="#c0392b"/>
 <path d="m85.596 72.429c0 3.223-2.74 6-6 6h-13c-1.113 0-2 0.754-2 2v18c0 0.738-0.253 1-0.917 1-0.232 0-0.471-0.154-0.865-0.457l-23.967-18.5c-3-2-6.129-2.006-6.129-2.006h-26.22c-3.26 0-5.902-2.613-5.902-5.836v-51.125c0-3.221 2.896-6.047 6-6.031h73c3.562 0 6 2.778 6 6v51z" fill-rule="evenodd" clip-rule="evenodd" fill="#e74c3c"/>
 <g transform="translate(-33.004 .92912)">
  <path fill="#fff" d="m60.923 56.991c-1.1046 1.1046-1.1046 2.8976 0 4.0021 1.1046 1.1046 2.8976 1.1046 4.0021 0l26.014-26.014c1.1046-1.1046 1.1046-2.8976 0-4.0021-1.1046-1.1046-2.8976-1.1046-4.0022 0l-26.014 26.014z"/>
 </g>
 <g transform="matrix(0 1 -1 0 88.816 -28.871)">
  <path fill="#fff" d="m60.923 56.991c-1.1046 1.1046-1.1046 2.8976 0 4.0021 1.1046 1.1046 2.8976 1.1046 4.0021 0l26.014-26.014c1.1046-1.1046 1.1046-2.8976 0-4.0021-1.1046-1.1046-2.8976-1.1046-4.0022 0l-26.014 26.014z"/>
 </g>
</svg>
